<?xml version="1.0" encoding="UTF-8"?>
<svg id="Layer_2" data-name="Layer 2" xmlns="http://www.w3.org/2000/svg" viewBox="0 0 18.5 18">
  <defs>
    <style>
      .cls-1 {
        fill: #444746;
      }
    </style>
  </defs>
  <g id="Layer_1-2" data-name="Layer 1">
    <path class="cls-1" d="M2.48,18c-.7,0-1.29-.24-1.76-.71s-.71-1.05-.71-1.71c0-.23,.03-.45,.08-.64s.13-.37,.23-.54L6,5.88c.17-.23,.29-.49,.38-.78s.13-.57,.13-.85V1.5h-.5c-.22,0-.4-.07-.54-.21s-.21-.32-.21-.54,.07-.4,.21-.54,.32-.21,.54-.21h6.5c.22,0,.4,.07,.54,.21s.21,.32,.21,.54-.07,.4-.21,.54-.32,.21-.54,.21h-.5v2.75c0,.28,.04,.57,.13,.85s.21,.54,.38,.78l5.68,8.53c.1,.15,.18,.32,.24,.51s.09,.41,.09,.66c0,.68-.23,1.26-.7,1.73s-1.04,.7-1.73,.7H2.48ZM8,1.5v2.75c0,.43-.06,.85-.19,1.26s-.3,.8-.54,1.16l-3.13,4.7c-.1,.13-.17,.27-.21,.4s-.06,.27-.06,.4c0,.38,.14,.71,.43,.99s.63,.41,1.05,.41c.47,0,.93-.1,1.4-.3s1.13-.59,2-1.18c1.15-.75,2.01-1.27,2.59-1.56s1.15-.5,1.74-.61c.07-.02,.11-.05,.14-.11s.02-.12-.01-.19l-1.95-2.93c-.25-.35-.44-.73-.56-1.15s-.19-.85-.19-1.3V1.5h-2.5Z"/>
  </g>
</svg>