<?xml version="1.0" encoding="utf-8"?>
<!-- Generator: Adobe Illustrator 27.0.0, SVG Export Plug-In . SVG Version: 6.00 Build 0)  -->
<svg version="1.1" id="Layer_2_00000061470255180837003150000016581518408602655888_"
	 xmlns="http://www.w3.org/2000/svg" xmlns:xlink="http://www.w3.org/1999/xlink" x="0px" y="0px" viewBox="0 0 28 38.1"
	 style="enable-background:new 0 0 28 38.1;" xml:space="preserve">
<style type="text/css">
	.st0{fill:#4285F4;}
	.st1{fill:#34A853;}
	.st2{fill:#EA4335;}
	.st3{fill:#F4B400;}
</style>
<g>
	<path class="st0" d="M14,24c-1.7,0-3.1-0.6-4.2-1.7C8.6,21.1,8,19.7,8,18V6C8,4.4,8.6,3,9.8,1.8S12.3,0,14,0c1.7,0,3.1,0.6,4.2,1.7
		C19.4,3,20,4.4,20,6v12c0,1.7-0.6,3.1-1.7,4.2C17.1,23.5,15.7,24,14,24z"/>
	<path class="st1" d="M11.6,31.8c0.1,0,0.3,0.1,0.4,0.1V38h4v-6.1c0.2,0,0.3-0.1,0.5-0.1C15.7,31.9,14.8,32,14,32
		C13.2,32,12.4,31.9,11.6,31.8z"/>
	<path class="st2" d="M24,18c0,2.8-1,5.1-2.9,7.1C19.1,27.1,16.8,28,14,28c-2.7,0-5-0.9-7-2.8L4.2,28c1.9,1.8,4.2,3.1,6.8,3.7
		c0.2,0,0.4,0.1,0.5,0.1c0.8,0.1,1.6,0.2,2.4,0.2c0.8,0,1.7-0.1,2.5-0.2c0.1,0,0.3,0,0.4-0.1C23.2,30.4,28,24.8,28,18H24z"/>
	<path class="st3" d="M6.9,25.1C5,23.2,4,20.8,4,18H0c0,0.2,0,0.4,0,0.6c0,0.3,0,0.6,0,0.8c0,0.1,0,0.1,0,0.2
		C0.5,22.9,2,25.8,4.2,28L7,25.2C7,25.2,7,25.1,6.9,25.1z"/>
</g>
</svg>
