<?xml version="1.0" encoding="utf-8"?>
<!-- Generator: Adobe Illustrator 27.0.0, SVG Export Plug-In . SVG Version: 6.00 Build 0)  -->
<svg version="1.1" id="Layer_1" xmlns="http://www.w3.org/2000/svg" xmlns:xlink="http://www.w3.org/1999/xlink" x="0px" y="0px"
	 viewBox="0 0 595.28 841.89" style="enable-background:new 0 0 595.28 841.89;" xml:space="preserve">
<style type="text/css">
	.st0{fill:#939598;}
</style>
<path class="st0" d="M301.76,422.76h-0.79l-0.28-0.27c1.01-1.18,1.57-2.68,1.57-4.23c0-3.59-2.91-6.5-6.5-6.5s-6.5,2.91-6.5,6.5
	s2.91,6.5,6.5,6.5c1.61,0,3.09-0.59,4.23-1.57l0.27,0.28v0.79l5,4.99l1.49-1.49L301.76,422.76z M295.76,422.76
	c-2.49,0-4.5-2.01-4.5-4.5s2.01-4.5,4.5-4.5s4.5,2.01,4.5,4.5S298.24,422.76,295.76,422.76z"/>
</svg>
